<?xml version="1.0" encoding="utf-8"?>
<!-- Generator: Adobe Illustrator 16.0.4, SVG Export Plug-In . SVG Version: 6.00 Build 0)  -->
<!DOCTYPE svg PUBLIC "-//W3C//DTD SVG 1.1//EN" "http://www.w3.org/Graphics/SVG/1.1/DTD/svg11.dtd">
<svg version="1.1" id="Layer_1" xmlns="http://www.w3.org/2000/svg" xmlns:xlink="http://www.w3.org/1999/xlink" x="0px" y="0px"
	 width="500px" height="500px" viewBox="0 0 500 500" enable-background="new 0 0 500 500" xml:space="preserve">
<circle fill="#26AAE1" cx="248.168" cy="248.908" r="247.5"/>
<path fill="#FFFFFF" d="M408.701,114.115c0,0-2.591,21.198-29.213,38.259c0,0,32.052-4.653,39.29-9.823
	c0,0-15.508,24.298-36.444,36.966c0,0,12.146,131.053-115.03,191.026c0,0-89.962,50.144-191.802-13.961
	c0,0,60.482,5.949,102.617-28.433c0,0-49.889-2.065-64.104-48.854c0,0,15.252,3.358,29.467-2.588c0,0-53.25-10.08-54.281-69.272
	c0,0,17.06,9.822,29.983,8.53c0,0-49.367-35.935-19.899-94.351c0,0,52.728,69.015,143.721,73.411c0,0-12.146-68.242,54.797-84.01
	c0,0,40.073-9.822,65.142,19.645C362.943,130.66,388.279,128.852,408.701,114.115z"/>
</svg>
